# xmcd
#
# Track frame offsets:
#	150
#	25913
#	42240
#	55698
#	76671
#	95546
#	116866
#	134160
#	153957
#	166614
#	189747
#	203854
#	220001
#	232599
#	244825
#	260749
#
# Disc length: 3674 seconds
#
# Revision: 0
# Processed by: cddbd v1.4PL0 Copyright (c) Steve Scherf et al.
# Submitted via: dBpowerAMP V4.0
#
DISCID=d30e5810
DTITLE=The London Rock Orchestra - The London Rock Orchestra plays Santana
DYEAR=1900
DGENRE=Blues
TTITLE0=Europa (Earth's cry, heaven's smile)
TTITLE1=Black Magic Woman
TTITLE2=Evil Ways
TTITLE3=Samba Pa Ti
TTITLE4=Oye Coma Va
TTITLE5=Soul Sacrifice
TTITLE6=She's Not There
TTITLE7=Changes
TTITLE8=Se a Cabo
TTITLE9=Aqua marine
TTITLE10=Jingo-la-ba
TTITLE11=Everybody's everything
TTITLE12=Persuasion
TTITLE13=Let the Children Play
TTITLE14=Well Alright
TTITLE15=Everything is coming our way
EXTD=London Rock Orchestra Performing Santana songs
EXTT0=
EXTT1=
EXTT2=
EXTT3=
EXTT4=
EXTT5=
EXTT6=
EXTT7=
EXTT8=
EXTT9=
EXTT10=
EXTT11=
EXTT12=
EXTT13=
EXTT14=
EXTT15=
PLAYORDER=
